<svg width="209" height="24" viewBox="0 0 209 24" fill="none" xmlns="http://www.w3.org/2000/svg">
<path fill-rule="evenodd" clip-rule="evenodd" d="M107.556 14.0877C107.152 14.0877 106.771 14.269 106.515 14.5804C105.627 15.5938 104.53 16.0958 103.224 16.0958C102.401 16.0958 101.667 15.9145 101.021 15.5566C100.375 15.194 99.8728 14.692 99.5103 14.0459C99.1477 13.3998 98.9711 12.6654 98.9711 11.8427C98.9711 11.0199 99.1524 10.2855 99.5103 9.63943C99.8728 8.99333 100.375 8.49132 101.021 8.12876C101.667 7.7662 102.401 7.58957 103.224 7.58957C104.289 7.58957 105.218 7.92424 106.008 8.59358C106.325 8.86783 106.552 9.02586 106.999 9.02586C107.747 9.02586 108.351 8.42159 108.351 7.67323C108.351 7.27814 108.184 6.92488 107.914 6.67387L107.91 6.66922L107.891 6.65062C107.389 6.2044 106.813 5.84184 106.194 5.57689C105.265 5.1725 104.224 4.96798 103.071 4.96798C101.704 4.96798 100.472 5.26081 99.3801 5.85113C98.2878 6.44145 97.4232 7.2549 96.8004 8.30074C96.1729 9.34659 95.8614 10.5272 95.8614 11.8427C95.8614 13.1581 96.1729 14.3387 96.8004 15.3846C97.4279 16.4304 98.2878 17.2439 99.3801 17.8342C100.472 18.4245 101.7 18.7174 103.052 18.7174C104.205 18.7174 105.246 18.5128 106.185 18.1084C107.101 17.7133 107.872 17.1416 108.5 16.3933C108.746 16.1515 108.904 15.8076 108.904 15.4357C108.904 14.692 108.3 14.0877 107.556 14.0877ZM91.7338 4.97728C92.4683 4.97728 93.0632 5.5769 93.0632 6.30666V11.8473V17.388C93.0632 18.1177 92.4636 18.7174 91.7338 18.7174C91.0041 18.7174 90.4045 18.1177 90.4045 17.388V17.2764C89.2424 18.1782 87.7829 18.7174 86.1932 18.7174C82.4003 18.7174 79.3232 15.6402 79.3232 11.8473C79.3232 8.05439 82.4003 4.97728 86.1932 4.97728C87.7782 4.97728 89.2424 5.51646 90.4045 6.41821V6.30666C90.4045 5.5769 91.0041 4.97728 91.7338 4.97728ZM90.4045 12.103V11.5963C90.2743 9.38377 88.4383 7.6314 86.1932 7.6314C83.8644 7.6314 81.9773 9.51857 81.9773 11.8473C81.9773 14.1761 83.8644 16.0632 86.1932 16.0632C88.4383 16.0679 90.2743 14.3155 90.4045 12.103ZM143.961 5.20504C144.658 5.20504 145.23 5.74887 145.281 6.43216C146.448 5.52576 147.912 4.98192 149.502 4.98192C153.295 4.98192 156.372 8.05903 156.372 11.852C156.372 15.6449 153.295 18.722 149.502 18.722C147.912 18.722 146.448 18.1828 145.286 17.2764V21.497C145.286 22.2267 144.691 22.8217 143.961 22.8217C143.231 22.8217 142.636 22.2267 142.636 21.497V12.1123C142.632 12.0286 142.632 11.9403 142.632 11.852C142.632 11.7636 142.632 11.68 142.636 11.5917V6.52513C142.636 5.80001 143.231 5.20504 143.961 5.20504ZM149.502 7.6314C147.173 7.6314 145.286 9.51857 145.286 11.8473C145.286 14.1761 147.173 16.0632 149.502 16.0632C151.83 16.0632 153.718 14.1761 153.718 11.8473C153.718 9.52322 151.83 7.6314 149.502 7.6314ZM189.253 10.3134C189.946 10.3134 190.508 10.8758 190.508 11.5684C190.508 12.261 189.946 12.8234 189.253 12.8234C188.56 12.8234 187.998 12.261 187.998 11.5684C188.003 10.8758 188.56 10.3134 189.253 10.3134ZM205.159 13.5207V14.2969V14.3201L205.154 14.3666L205.15 14.3899L205.145 14.4131L205.136 14.4596L205.127 14.5014L205.122 14.5247L205.108 14.5665L205.099 14.5851L205.089 14.6083L205.075 14.6455L205.066 14.6688L205.048 14.706L205.038 14.7246L205.015 14.7617L204.992 14.7943L204.978 14.8129L204.95 14.8454L204.922 14.8779L204.894 14.9105L204.862 14.9384L204.829 14.9663L204.797 14.9941L204.759 15.0174L204.722 15.0406L204.704 15.0499L204.666 15.0685L204.643 15.0778L204.606 15.0964L204.569 15.1103L204.546 15.1196L204.504 15.1336L204.48 15.1382L204.439 15.1475L204.415 15.1522L204.374 15.1568L204.35 15.1615L204.309 15.1661H204.285H204.239H204.216L204.169 15.1615L204.146 15.1568L204.104 15.1522L204.081 15.1475L204.039 15.1382L203.997 15.1243L203.974 15.115L203.937 15.1011L203.913 15.0918L203.872 15.0732L203.834 15.0546L203.816 15.0453L203.783 15.022L203.765 15.0081L203.746 14.9941L203.727 14.9802L203.695 14.957L203.662 14.9291L203.63 14.9012L203.602 14.8733L203.574 14.8408L203.546 14.8082L203.523 14.7757L203.509 14.7524L203.486 14.7152L203.476 14.6967L203.458 14.6595L203.439 14.6223L203.425 14.5851L203.416 14.5619L203.402 14.52L203.397 14.4968L203.388 14.455L203.384 14.4317L203.379 14.4085L203.374 14.3852L203.37 14.362L203.365 14.3201V14.2969V14.2411V13.5253H202.366C201.868 13.5253 201.366 13.4509 200.911 13.2464C200.506 13.0651 200.167 12.7955 199.925 12.4237C199.684 12.0472 199.577 11.6196 199.577 11.1733C199.577 10.7271 199.679 10.2948 199.925 9.91831C200.167 9.54645 200.506 9.28151 200.906 9.09558C201.362 8.89106 201.864 8.81205 202.361 8.81205H206.135C206.633 8.81205 207.135 8.88641 207.59 9.09558C207.995 9.27686 208.329 9.54645 208.571 9.91831C208.817 10.2948 208.92 10.7271 208.92 11.1733C208.92 11.6196 208.817 12.0472 208.571 12.4237C208.329 12.7955 207.995 13.0651 207.585 13.2464C207.13 13.4509 206.628 13.5253 206.131 13.5253H205.159V13.5207ZM194.84 13.5207V14.2737C194.84 14.7617 194.44 15.1615 193.952 15.1615C193.464 15.1615 193.065 14.7617 193.065 14.2737V9.69984C193.065 9.21178 193.464 8.81205 193.952 8.81205H195.839C196.337 8.81205 196.839 8.88641 197.294 9.09558C197.699 9.27686 198.033 9.54645 198.275 9.91831C198.521 10.2948 198.624 10.7271 198.624 11.1733C198.624 11.6196 198.521 12.0472 198.275 12.4237C198.033 12.7955 197.699 13.0651 197.29 13.2464C196.834 13.4509 196.332 13.5253 195.835 13.5253H194.84V13.5207ZM205.159 10.3367V12.0007H206.079C206.354 12.0007 206.679 11.9589 206.893 11.7776C207.079 11.6242 207.144 11.4104 207.144 11.1733C207.144 10.9316 207.083 10.7132 206.893 10.5598C206.674 10.3785 206.349 10.3367 206.079 10.3367H205.159ZM203.379 12.0007V10.3367H202.459C202.184 10.3367 201.859 10.3785 201.645 10.5598C201.455 10.7178 201.394 10.9363 201.394 11.1733C201.394 11.4104 201.459 11.6242 201.645 11.7776C201.864 11.9589 202.189 12.0007 202.459 12.0007H203.379ZM194.84 10.3367V12.0007H195.76C196.035 12.0007 196.36 11.9589 196.574 11.7776C196.76 11.6242 196.825 11.4104 196.825 11.1733C196.825 10.9316 196.764 10.7132 196.574 10.5598C196.355 10.3785 196.03 10.3367 195.76 10.3367H194.84ZM184.27 11.2988C184.8 10.6574 185.121 9.82999 185.121 8.93289C185.121 6.87374 183.452 5.20504 181.393 5.20504H181.388H175.671C174.885 5.20504 174.249 5.83255 174.235 6.6181V6.64133V7.09221V17.0487V17.2346V17.2718V17.3043V17.3136C174.235 17.9643 174.765 18.4942 175.415 18.4942H175.425H175.638H181.723C183.959 18.4942 185.771 16.6814 185.771 14.4457C185.767 13.1721 185.186 12.0379 184.27 11.2988ZM177.312 16.212V12.8234H178.009H181.258C182.192 12.8234 182.955 13.5811 182.955 14.52C182.955 15.4543 182.197 16.2166 181.258 16.2166H178.079H177.312V16.212ZM177.874 7.71041H181.002C181.723 7.71041 182.304 8.2961 182.304 9.01657C182.304 9.73704 181.718 10.3181 181.002 10.3181H177.935H177.307V7.71041H177.874ZM170.27 12.8234H169.41H169.15H161.457C161.917 14.4549 163.418 15.6588 165.194 15.6588C166.486 15.6588 167.704 15.2219 168.531 14.4596C169.108 13.9297 170.005 13.9715 170.535 14.5479C171.065 15.1243 171.023 16.0214 170.446 16.5513C169.098 17.7877 167.183 18.4942 165.189 18.4942C161.485 18.4942 158.473 15.4822 158.473 11.7776C158.473 8.07297 161.485 5.06095 165.189 5.06095C168.569 5.06095 171.409 7.72437 171.771 11.0757C171.78 11.1454 171.785 11.2198 171.785 11.2942C171.79 12.1355 171.106 12.8141 170.27 12.8234ZM168.954 10.3134C168.35 8.86317 166.918 7.84521 165.25 7.84521C163.581 7.84521 162.149 8.86317 161.545 10.3134H168.954ZM167.369 4.26611C166.514 4.26611 165.821 3.57352 165.821 2.71825C165.821 1.86299 166.514 1.17041 167.369 1.17041C168.225 1.17041 168.917 1.86299 168.917 2.71825C168.917 3.57352 168.225 4.26611 167.369 4.26611ZM162.586 4.26611C161.731 4.26611 161.038 3.57352 161.038 2.71825C161.038 1.86299 161.731 1.17041 162.586 1.17041C163.442 1.17041 164.134 1.86299 164.134 2.71825C164.134 3.57352 163.442 4.26611 162.586 4.26611ZM55.7243 4.97728C59.5172 4.97728 62.5943 8.05439 62.5943 11.8473C62.5943 15.6402 59.5172 18.7174 55.7243 18.7174C51.9313 18.7174 48.8542 15.6402 48.8542 11.8473C48.8496 8.05439 51.9267 4.97728 55.7243 4.97728ZM55.7243 7.6314C53.3955 7.6314 51.5083 9.51857 51.5083 11.8473C51.5083 14.1761 53.3955 16.0632 55.7243 16.0632C58.053 16.0632 59.9402 14.1761 59.9402 11.8473C59.9402 9.52322 58.053 7.6314 55.7243 7.6314ZM35.0584 5.65126C35.077 5.66986 35.0909 5.68846 35.1095 5.7024L39.4137 10.1972L43.7923 5.64663C44.0712 5.37238 44.4524 5.20039 44.8754 5.20039C45.726 5.20039 46.4186 5.89297 46.4186 6.74359V16.9417C46.4186 17.7877 45.726 18.4849 44.8754 18.4849C44.0247 18.4849 43.3322 17.7924 43.3322 16.9417V10.1414L40.4177 13.172C40.4085 13.1813 40.3992 13.1906 40.3852 13.2046C40.3806 13.2092 40.3806 13.2092 40.3759 13.2139C40.1296 13.4509 39.8228 13.5764 39.5067 13.5997H39.5021C39.4928 13.5997 39.4835 13.5997 39.4742 13.5997H39.4649C39.4556 13.5997 39.4509 13.5997 39.4416 13.5997C39.437 13.5997 39.4323 13.5997 39.4277 13.5997C39.423 13.5997 39.4137 13.5997 39.4091 13.5997C39.4044 13.5997 39.3951 13.5997 39.3905 13.5997C39.3858 13.5997 39.3812 13.5997 39.3766 13.5997C39.3673 13.5997 39.3626 13.5997 39.3533 13.5997H39.344C39.3347 13.5997 39.3254 13.5997 39.3161 13.5997H39.3115C38.9954 13.5811 38.684 13.4509 38.4423 13.2139C38.4376 13.2092 38.4376 13.2092 38.433 13.2046C38.4237 13.1953 38.4144 13.186 38.4004 13.172L35.5093 10.1693V16.9417C35.5093 17.7877 34.8167 18.4849 33.9661 18.4849C33.1201 18.4849 32.4229 17.7924 32.4229 16.9417V6.74359C32.4229 5.89297 33.1154 5.20039 33.9661 5.20039C34.3983 5.20504 34.7795 5.37237 35.0584 5.65126ZM124.75 5.20504C125.591 5.20504 126.279 5.89298 126.279 6.7343V6.98066V9.56969H129.658C131.276 9.56969 132.522 9.93226 133.391 10.6527C134.256 11.3732 134.692 12.4423 134.692 13.86C134.692 15.366 134.214 16.5141 133.261 17.3043C132.303 18.0945 130.96 18.4896 129.226 18.4896H124.755C123.913 18.4896 123.225 17.8017 123.225 16.9603V16.4072V6.976V6.72965C123.221 5.88833 123.909 5.20504 124.75 5.20504ZM126.275 11.8473V16.212H129.045C129.84 16.212 130.467 16.0167 130.913 15.6217C131.364 15.2312 131.587 14.6595 131.587 13.9158C131.587 12.5352 130.742 11.8473 129.045 11.8473H126.275ZM138.309 5.20504C139.15 5.20504 139.838 5.89298 139.838 6.7343V16.965C139.838 17.8063 139.15 18.4942 138.309 18.4942C137.467 18.4942 136.78 17.8063 136.78 16.965V6.7343C136.784 5.88833 137.472 5.20504 138.309 5.20504ZM115.547 5.20504H120.065C120.753 5.20504 121.32 5.76748 121.32 6.46006C121.32 7.14799 120.757 7.71041 120.065 7.71041H117.066V16.9743C117.066 17.811 116.383 18.4942 115.547 18.4942C114.71 18.4942 114.027 17.811 114.027 16.9743V7.71041H111.047C110.359 7.71041 109.797 7.14799 109.797 6.46006C109.797 5.77213 110.359 5.20504 111.047 5.20504H115.547ZM66.5778 5.20504C67.4238 5.20504 68.1164 5.89762 68.1164 6.74359V10.4436H74.1544V6.74359C74.1544 5.89762 74.8469 5.20504 75.6929 5.20504C76.5389 5.20504 77.2315 5.89762 77.2315 6.74359V16.9557C77.2315 17.8017 76.5389 18.4942 75.6929 18.4942C74.8469 18.4942 74.1544 17.8017 74.1544 16.9557V13.0465H68.1164V16.9557C68.1164 17.8017 67.4238 18.4942 66.5778 18.4942C65.7318 18.4942 65.0392 17.8017 65.0392 16.9557V6.74359C65.0392 5.89297 65.7318 5.20504 66.5778 5.20504Z" fill="#00893D"/>
<path fill-rule="evenodd" clip-rule="evenodd" d="M14.8405 23.5093C11.1777 24.1601 7.61252 23.0538 5.00488 20.7948C7.87747 21.8081 11.0336 22.1335 14.2408 21.6082C14.3245 21.5943 14.4082 21.5803 14.4919 21.5664C14.6824 21.5339 14.8684 21.492 15.0543 21.4502C19.828 20.316 23.0352 15.8352 22.5983 10.9731C22.9516 14.1246 22.4914 17.2064 21.3758 19.9906C19.6885 21.7709 17.4388 23.0492 14.8405 23.5093Z" fill="url(#paint0_linear)"/>
<path fill-rule="evenodd" clip-rule="evenodd" d="M14.7332 15.0728C14.6821 14.9891 14.6263 14.9101 14.5752 14.8264C14.5798 14.8264 14.5798 14.8218 14.5845 14.8218C14.6542 14.938 14.7053 15.0263 14.7332 15.0728Z" fill="#FFF8B4"/>
<path fill-rule="evenodd" clip-rule="evenodd" d="M12.5013 5.63232C13.8028 9.90866 16.1083 13.7434 19.1482 16.867H16.4894C13.7284 13.6458 11.6413 9.82965 10.4561 5.63232H12.5013Z" fill="#FFD800"/>
<path fill-rule="evenodd" clip-rule="evenodd" d="M15.082 5.63232C13.9013 9.825 11.8236 13.6458 9.06721 16.867H6.41309C9.43906 13.7434 11.7399 9.90402 13.0321 5.63232H15.082Z" fill="#E5310E"/>
<path fill-rule="evenodd" clip-rule="evenodd" d="M19.3723 14.3992C17.4015 15.4404 15.1564 16.0353 12.7672 16.0353C10.3827 16.0353 8.13294 15.445 6.16211 14.3992V12.1401C8.07252 13.344 10.3362 14.0413 12.7672 14.0413C15.1936 14.0413 17.4572 13.344 19.3723 12.1401V14.3992Z" fill="#5CB136"/>
<path fill-rule="evenodd" clip-rule="evenodd" d="M4.27468 3.58712C4.30722 3.55459 4.33976 3.5174 4.3723 3.48486C4.33976 3.52205 4.30722 3.55459 4.27468 3.58712ZM5.00445 20.7948C3.02432 19.0796 1.59732 16.6997 1.10461 13.9201C0.42133 10.076 1.67634 6.33421 4.16778 3.70333L4.15848 3.71263C3.04291 6.49226 2.58274 9.574 2.936 12.7255C2.96389 13.009 2.99643 13.2926 3.04756 13.5761C3.9865 18.8611 8.96472 22.4077 14.2404 21.6082C14.3241 21.5942 14.4078 21.5803 14.4914 21.5664C11.2935 22.2543 8.13269 21.9336 5.00445 20.7948Z" fill="url(#paint1_linear)"/>
<path fill-rule="evenodd" clip-rule="evenodd" d="M10.6988 0.184797C14.3616 -0.465951 17.9267 0.640318 20.5344 2.89934C17.6618 1.88603 14.5057 1.56066 11.2984 2.08591C11.2147 2.09985 11.1311 2.1138 11.0474 2.12774C5.96693 3.02949 2.48543 7.67303 2.94095 12.721C2.58769 9.56949 3.04786 6.48774 4.16343 3.70812C5.84608 1.92322 8.0958 0.644968 10.6988 0.184797Z" fill="url(#paint2_linear)"/>
<path fill-rule="evenodd" clip-rule="evenodd" d="M21.2587 20.1067C21.2262 20.1393 21.1937 20.1765 21.1611 20.209C21.1937 20.1718 21.2262 20.1393 21.2587 20.1067ZM20.529 2.89913C22.5091 4.61431 23.9361 6.99418 24.4288 9.7738C25.1121 13.6179 23.8571 17.3597 21.3656 19.9905L21.3749 19.9813C22.4905 17.2016 22.9507 14.1199 22.5974 10.9684C22.5742 10.6849 22.537 10.4013 22.4859 10.1178C21.5469 4.83278 16.5687 1.2862 11.293 2.08569C11.2093 2.09964 11.1257 2.11358 11.042 2.12753C14.2446 1.43494 17.4054 1.76032 20.529 2.89913Z" fill="url(#paint3_linear)"/>
<defs>
<linearGradient id="paint0_linear" x1="23.5133" y1="16.4392" x2="4.80018" y2="19.5672" gradientUnits="userSpaceOnUse">
<stop stop-color="#FFE500"/>
<stop offset="1" stop-color="#F18500"/>
</linearGradient>
<linearGradient id="paint1_linear" x1="1.25615" y1="5.0263" x2="10.4167" y2="23.5769" gradientUnits="userSpaceOnUse">
<stop stop-color="#FDC300"/>
<stop offset="1" stop-color="#D7030D"/>
</linearGradient>
<linearGradient id="paint2_linear" x1="1.97659" y1="7.31201" x2="20.7222" y2="3.98269" gradientUnits="userSpaceOnUse">
<stop stop-color="#FFED00"/>
<stop offset="1" stop-color="#9FC515"/>
</linearGradient>
<linearGradient id="paint3_linear" x1="16.8799" y1="1.08805" x2="20.2742" y2="20.3624" gradientUnits="userSpaceOnUse">
<stop stop-color="#32A934"/>
<stop offset="1" stop-color="#C7D300"/>
</linearGradient>
</defs>
</svg>
