<svg width="15" height="14" viewBox="0 0 15 14" fill="none" xmlns="http://www.w3.org/2000/svg">
<path d="M0.902375 3.244C0.902375 2.704 0.980375 2.242 1.13638 1.858C1.29238 1.474 1.50838 1.156 1.78438 0.903999C2.06038 0.651999 2.39038 0.472 2.77438 0.364C3.17038 0.244 3.59638 0.184 4.05238 0.184C4.50838 0.184 4.92838 0.238 5.31238 0.346C5.69638 0.454 6.02638 0.628 6.30238 0.868C6.59038 1.108 6.81238 1.426 6.96838 1.822C7.12438 2.206 7.20838 2.68 7.22038 3.244C7.20838 3.808 7.12438 4.288 6.96838 4.684C6.81238 5.068 6.59038 5.38 6.30238 5.62C6.02638 5.86 5.69638 6.034 5.31238 6.142C4.92838 6.25 4.50838 6.304 4.05238 6.304C3.59638 6.304 3.17038 6.25 2.77438 6.142C2.39038 6.034 2.06038 5.86 1.78438 5.62C1.50838 5.38 1.29238 5.068 1.13638 4.684C0.980375 4.288 0.902375 3.808 0.902375 3.244ZM2.99038 3.244C2.99038 4.276 3.34438 4.792 4.05238 4.792C4.42438 4.792 4.68838 4.684 4.84438 4.468C5.01238 4.24 5.10238 3.832 5.11438 3.244C5.10238 2.668 5.01238 2.266 4.84438 2.038C4.68838 1.81 4.42438 1.696 4.05238 1.696C3.68038 1.696 3.41038 1.81 3.24238 2.038C3.07438 2.266 2.99038 2.668 2.99038 3.244ZM8.21038 9.922C8.21038 9.382 8.28838 8.92 8.44438 8.536C8.60038 8.152 8.81638 7.834 9.09238 7.582C9.36838 7.33 9.69838 7.15 10.0824 7.042C10.4784 6.922 10.9044 6.862 11.3604 6.862C11.8164 6.862 12.2364 6.916 12.6204 7.024C13.0044 7.132 13.3344 7.306 13.6104 7.546C13.8984 7.786 14.1204 8.104 14.2764 8.5C14.4324 8.884 14.5164 9.358 14.5284 9.922C14.5164 10.486 14.4324 10.966 14.2764 11.362C14.1204 11.746 13.8984 12.058 13.6104 12.298C13.3344 12.538 13.0044 12.712 12.6204 12.82C12.2364 12.928 11.8164 12.982 11.3604 12.982C10.9044 12.982 10.4784 12.928 10.0824 12.82C9.69838 12.712 9.36838 12.538 9.09238 12.298C8.81638 12.058 8.60038 11.746 8.44438 11.362C8.28838 10.966 8.21038 10.486 8.21038 9.922ZM10.2984 9.922C10.2984 10.954 10.6524 11.47 11.3604 11.47C11.7324 11.47 11.9964 11.362 12.1524 11.146C12.3204 10.918 12.4104 10.51 12.4224 9.922C12.4104 9.346 12.3204 8.944 12.1524 8.716C11.9964 8.488 11.7324 8.374 11.3604 8.374C10.9884 8.374 10.7184 8.488 10.5504 8.716C10.3824 8.944 10.2984 9.346 10.2984 9.922ZM12.1704 0.147999L13.4844 1.336L3.11638 13.252L1.80238 12.01L12.1704 0.147999Z" fill="url(#paint0_linear)"/>
<defs>
<linearGradient id="paint0_linear" x1="-0.015625" y1="-5" x2="-0.015625" y2="18" gradientUnits="userSpaceOnUse">
<stop stop-color="#FBB03B"/>
<stop offset="1" stop-color="#D4145A"/>
</linearGradient>
</defs>
</svg>
