<svg width="41" height="40" viewBox="0 0 41 40" fill="none" xmlns="http://www.w3.org/2000/svg">
<rect x="0.338867" width="39.7114" height="40" rx="19.8557" fill="#FFCC00"/>
<rect x="9.27441" y="7" width="24.8098" height="25.0435" fill="#D8D8D8" fill-opacity="0.01"/>
<path fill-rule="evenodd" clip-rule="evenodd" d="M14.3255 23.5287C17.4417 26.6743 22.5324 26.6743 25.6487 23.5287C28.7642 20.3838 28.7642 15.2808 25.6526 12.103C22.5324 8.95333 17.4417 8.95333 14.3255 12.0989C11.2092 15.2445 11.2092 20.3831 14.3255 23.5287ZM24.2824 13.4793C26.6443 15.8915 26.6443 19.7652 24.2824 22.1493C21.9211 24.5328 18.0545 24.5328 15.6932 22.1493C13.332 19.7658 13.332 15.8628 15.6932 13.4793C18.0545 11.0958 21.9211 11.0958 24.2824 13.4793Z" fill="#4A4A4A"/>
<path d="M25.6487 23.5287L25.5066 23.388L25.6487 23.5287ZM14.3255 23.5287L14.4675 23.388L14.3255 23.5287ZM25.6526 12.103L25.7955 11.963L25.7947 11.9622L25.6526 12.103ZM14.3255 12.0989L14.1834 11.9582L14.3255 12.0989ZM24.2824 22.1493L24.1403 22.0086L24.2824 22.1493ZM24.2824 13.4793L24.4253 13.3394L24.4245 13.3385L24.2824 13.4793ZM15.6932 22.1493L15.5512 22.2901L15.6932 22.1493ZM15.6932 13.4793L15.5512 13.3385L15.6932 13.4793ZM25.5066 23.388C22.4686 26.4545 17.5055 26.4545 14.4675 23.388L14.1834 23.6695C17.3779 26.894 22.5962 26.894 25.7907 23.6695L25.5066 23.388ZM25.5097 12.2429C28.5456 15.3434 28.5445 20.3214 25.5066 23.388L25.7907 23.6695C28.9839 20.4462 28.9829 15.2182 25.7955 11.963L25.5097 12.2429ZM14.4675 12.2397C17.5055 9.17315 22.4685 9.17301 25.5106 12.2437L25.7947 11.9622C22.5963 8.73365 17.3779 8.73352 14.1834 11.9582L14.4675 12.2397ZM14.4675 23.388C11.4285 20.3203 11.4285 15.3073 14.4675 12.2397L14.1834 11.9582C10.9899 15.1817 10.9899 20.4459 14.1834 23.6695L14.4675 23.388ZM24.4245 22.2901C26.8641 19.8275 26.8629 15.8289 24.4253 13.3394L24.1395 13.6192C26.4257 15.9542 26.4246 19.7028 24.1403 22.0086L24.4245 22.2901ZM15.5512 22.2901C17.9907 24.7526 21.985 24.7526 24.4245 22.2901L24.1403 22.0086C21.8573 24.3131 18.1183 24.3131 15.8353 22.0086L15.5512 22.2901ZM15.5512 13.3385C13.1127 15.8 13.1127 19.8287 15.5512 22.2901L15.8353 22.0086C13.5513 19.703 13.5513 15.9256 15.8353 13.6201L15.5512 13.3385ZM24.4245 13.3385C21.985 10.8761 17.9907 10.8761 15.5512 13.3385L15.8353 13.6201C18.1183 11.3156 21.8573 11.3156 24.1403 13.6201L24.4245 13.3385Z" fill="#4A4A4A"/>
<path d="M24.3778 23.6271L29.8875 29.1887C30.265 29.5697 30.8771 29.5697 31.2545 29.1887C31.632 28.8076 31.632 28.1899 31.2545 27.8088L25.7448 22.2472C25.3674 21.8662 24.7553 21.8662 24.3778 22.2472C24.0004 22.6283 24.0004 23.246 24.3778 23.6271Z" fill="#4A4A4A" stroke="#4A4A4A" stroke-width="0.4"/>
</svg>