<svg width="30" height="28" viewBox="0 0 30 28" fill="none" xmlns="http://www.w3.org/2000/svg">
<path fill-rule="evenodd" clip-rule="evenodd" d="M14.7299 14.0002C11.3976 14.0002 8.69614 11.3885 8.69614 8.16683C8.69614 4.94517 11.3976 2.3335 14.7299 2.3335C18.0623 2.3335 20.7637 4.94517 20.7637 8.16683C20.7637 11.3885 18.0623 14.0002 14.7299 14.0002ZM25.5907 24.5002V22.1668C25.5907 18.9452 22.8893 16.3335 19.557 16.3335H9.90292C6.57055 16.3335 3.86914 18.9452 3.86914 22.1668V24.5002C3.86914 25.1445 4.40942 25.6668 5.0759 25.6668C5.74237 25.6668 6.28265 25.1445 6.28265 24.5002V22.1668C6.28265 20.2338 7.9035 18.6668 9.90292 18.6668H19.557C21.5564 18.6668 23.1772 20.2338 23.1772 22.1668V24.5002C23.1772 25.1445 23.7175 25.6668 24.384 25.6668C25.0504 25.6668 25.5907 25.1445 25.5907 24.5002ZM18.3502 8.16683C18.3502 10.0998 16.7294 11.6668 14.73 11.6668C12.7305 11.6668 11.1097 10.0998 11.1097 8.16683C11.1097 6.23383 12.7305 4.66683 14.73 4.66683C16.7294 4.66683 18.3502 6.23383 18.3502 8.16683Z" fill="#4A4A4A"/>
<mask id="mask0" mask-type="alpha" maskUnits="userSpaceOnUse" x="3" y="2" width="23" height="24">
<path fill-rule="evenodd" clip-rule="evenodd" d="M14.7299 14.0002C11.3976 14.0002 8.69614 11.3885 8.69614 8.16683C8.69614 4.94517 11.3976 2.3335 14.7299 2.3335C18.0623 2.3335 20.7637 4.94517 20.7637 8.16683C20.7637 11.3885 18.0623 14.0002 14.7299 14.0002ZM25.5907 24.5002V22.1668C25.5907 18.9452 22.8893 16.3335 19.557 16.3335H9.90292C6.57055 16.3335 3.86914 18.9452 3.86914 22.1668V24.5002C3.86914 25.1445 4.40942 25.6668 5.0759 25.6668C5.74237 25.6668 6.28265 25.1445 6.28265 24.5002V22.1668C6.28265 20.2338 7.9035 18.6668 9.90292 18.6668H19.557C21.5564 18.6668 23.1772 20.2338 23.1772 22.1668V24.5002C23.1772 25.1445 23.7175 25.6668 24.384 25.6668C25.0504 25.6668 25.5907 25.1445 25.5907 24.5002ZM18.3502 8.16683C18.3502 10.0998 16.7294 11.6668 14.73 11.6668C12.7305 11.6668 11.1097 10.0998 11.1097 8.16683C11.1097 6.23383 12.7305 4.66683 14.73 4.66683C16.7294 4.66683 18.3502 6.23383 18.3502 8.16683Z" fill="white"/>
</mask>
<g mask="url(#mask0)">
<rect x="0.249023" width="28.9621" height="28" fill="#00893D"/>
</g>
</svg>
